<?xml version="1.0" encoding="UTF-8"?>
<svg width="69px" height="70px" viewBox="0 0 69 70" version="1.1" xmlns="http://www.w3.org/2000/svg" xmlns:xlink="http://www.w3.org/1999/xlink">
    <title>Icons/Beautiful</title>
    <defs>
        <polygon id="path-1" points="0 0.29 67.397 0.29 67.397 45 0 45"></polygon>
    </defs>
    <g id="Icons/Beautiful" stroke="none" stroke-width="1" fill="none" fill-rule="evenodd">
        <rect id="Rectangle" x="0" y="0" width="69" height="70"></rect>
        <g id="Beautiful-Icon" transform="translate(1.000000, 12.000000)">
            <g id="Group-3" transform="translate(0.000000, 0.710400)">
                <mask id="mask-2" fill="white">
                    <use xlink:href="#path-1"></use>
                </mask>
                <g id="Clip-2"></g>
                <path d="M33.6992,42.7326 C18.2622,42.7326 5.1322,26.1466 2.5332,22.6446 C5.1322,19.1436 18.2622,2.5576 33.6992,2.5576 C49.1352,2.5576 62.2652,19.1436 64.8642,22.6446 C62.2652,26.1466 49.1352,42.7326 33.6992,42.7326 M67.1982,22.0026 C67.0462,21.7816 63.4092,16.5246 57.4842,11.1916 C49.5622,4.0596 41.3372,0.2896 33.6992,0.2896 C26.0602,0.2896 17.8352,4.0596 9.9132,11.1916 C3.9882,16.5246 0.3512,21.7816 0.1992,22.0026 C-0.0668,22.3896 -0.0668,22.8996 0.1992,23.2866 C0.3512,23.5076 3.9882,28.7646 9.9132,34.0986 C17.8352,41.2306 26.0602,45.0006 33.6992,45.0006 C41.3372,45.0006 49.5622,41.2306 57.4842,34.0986 C63.4092,28.7646 67.0462,23.5076 67.1982,23.2866 C67.4642,22.8996 67.4642,22.3896 67.1982,22.0026" id="Fill-1" fill="#008542" mask="url(#mask-2)"></path>
            </g>
            <path d="M33.6992,37.2189 C26.0542,37.2189 19.8352,30.9999 19.8352,23.3549 C19.8352,15.7109 26.0542,9.4919 33.6992,9.4919 C41.3442,9.4919 47.5622,15.7109 47.5622,23.3549 C47.5622,30.9999 41.3442,37.2189 33.6992,37.2189 M33.6992,7.2239 C24.8042,7.2239 17.5672,14.4609 17.5672,23.3549 C17.5672,32.2499 24.8042,39.4869 33.6992,39.4869 C42.5942,39.4869 49.8302,32.2499 49.8302,23.3549 C49.8302,14.4609 42.5942,7.2239 33.6992,7.2239" id="Fill-4" fill="#008542"></path>
            <path d="M39.8662,20.0475 C39.7482,20.1115 39.6512,20.2085 39.5872,20.3255 L38.2242,22.8185 L36.8612,20.3255 C36.7972,20.2085 36.7002,20.1115 36.5822,20.0475 L34.0902,18.6845 L36.5822,17.3205 C36.7002,17.2565 36.7972,17.1605 36.8612,17.0425 L38.2242,14.5505 L39.5872,17.0425 C39.6512,17.1595 39.7482,17.2565 39.8662,17.3205 L42.3582,18.6845 L39.8662,20.0475 Z M38.8402,12.7535 C38.7172,12.5285 38.4802,12.3895 38.2242,12.3895 C37.9692,12.3895 37.7322,12.5285 37.6092,12.7535 L36.0242,15.6505 C35.2882,15.4255 34.5092,15.3015 33.6992,15.3015 C29.2582,15.3015 25.6442,18.9145 25.6442,23.3555 C25.6442,27.7965 29.2582,31.4095 33.6992,31.4095 C38.1392,31.4095 41.7532,27.7965 41.7532,23.3555 C41.7532,22.4745 41.6062,21.6295 41.3432,20.8365 L44.1542,19.2985 C44.3802,19.1755 44.5192,18.9405 44.5192,18.6845 C44.5192,18.4275 44.3802,18.1925 44.1542,18.0695 L40.7192,16.1895 L38.8402,12.7535 Z" id="Fill-6" fill="#008542"></path>
        </g>
    </g>
</svg>