<?xml version="1.0" encoding="UTF-8"?>
<svg width="50px" height="61px" viewBox="0 0 50 61" version="1.1" xmlns="http://www.w3.org/2000/svg" xmlns:xlink="http://www.w3.org/1999/xlink">
    <title>Easy icon</title>
    <g id="Symbols" stroke="none" stroke-width="1" fill="none" fill-rule="evenodd">
        <g id="Easy-icon" fill="#008542">
            <path d="M47.677,21.8726 C47.583,22.4786 47.202,23.0016 46.576,23.3856 C41.057,26.7666 38.623,33.2096 38.866,35.7156 C38.881,35.8696 38.932,36.0186 39.015,36.1486 C43.721,43.6166 41.93,51.4956 37.73,55.4176 C35.6,57.4076 32.323,58.3746 28.516,58.1466 C24.324,57.8956 20.067,56.1856 17.435,53.7806 C17.865,53.5556 18.276,53.2806 18.633,52.9126 L18.961,52.5746 C19.821,51.6916 20.277,50.5306 20.246,49.3046 C20.24,49.0736 20.201,48.8496 20.161,48.6256 C20.25,48.6306 20.339,48.6496 20.428,48.6496 C21.7,48.6496 22.969,48.1496 23.929,47.1616 L24.363,46.7136 C25.27,45.7826 25.752,44.5576 25.72,43.2646 C25.719,43.2146 25.704,43.1676 25.701,43.1176 C26.08,43.2066 26.464,43.2676 26.851,43.2676 C28.193,43.2676 29.541,42.7336 30.577,41.6676 L30.653,41.5906 C31.6,40.6166 32.104,39.3346 32.071,37.9826 C32.037,36.6486 31.481,35.4126 30.501,34.4996 C26.401,30.6856 22.068,26.9666 17.621,23.4386 C17.594,23.4106 17.578,23.3746 17.546,23.3506 C12.924,19.7206 8.878,16.8246 6.904,15.5546 C6.207,15.1236 5.986,14.3116 5.916,13.8656 C5.786,13.0416 5.977,12.2916 6.281,11.9266 C7.04,10.8316 9.278,10.6046 10.505,11.2516 C16.429,13.9706 28.498,24.9676 30.156,26.5716 C30.699,27.0486 31.843,27.8036 33.276,27.5056 C34.898,27.3356 36.511,25.5066 38.378,23.3886 C39.506,22.1096 40.673,20.7866 41.597,20.1956 C43.302,19.1046 46.025,18.8226 47.115,20.0746 C47.569,20.5986 47.774,21.2536 47.677,21.8726 M2.979,42.8106 C2.411,42.3736 2.062,41.7566 1.995,41.0746 C1.932,40.4206 2.142,39.7816 2.586,39.2746 L2.911,38.9056 C3.457,38.2846 4.286,37.9626 5.117,37.9626 C5.45,37.9626 5.783,38.0156 6.098,38.1206 C9.911,41.0786 13.634,44.1946 17.163,47.3886 C17.27,47.4846 17.389,47.5566 17.502,47.6416 C17.974,48.0966 18.245,48.7016 18.262,49.3546 C18.28,50.0416 18.023,50.6936 17.539,51.1906 L17.206,51.5336 C16.214,52.5566 14.609,52.6096 13.553,51.6576 C10.178,48.6016 6.62,45.6266 2.979,42.8106 M6.624,32.4546 L7.049,31.9716 C7.656,31.2816 8.554,30.9246 9.456,30.9246 C9.807,30.9246 10.156,30.9806 10.491,31.0886 C14.819,34.4296 19.031,37.9556 23.03,41.5746 C23.464,42.0566 23.72,42.6606 23.737,43.3136 C23.755,44.0676 23.473,44.7836 22.941,45.3296 L22.504,45.7806 C21.517,46.7986 19.981,46.9326 18.837,46.1706 C18.83,46.1646 18.826,46.1576 18.821,46.1516 C15.429,43.0066 11.85,39.9346 8.183,37.0226 C7.864,36.7686 7.51,36.5786 7.145,36.4176 C7.114,36.3946 7.084,36.3706 7.054,36.3466 C6.43,35.8656 6.046,35.1876 5.974,34.4366 C5.904,33.7176 6.134,33.0146 6.624,32.4546 M11.137,25.2286 L11.258,25.0906 C11.912,24.3456 12.881,23.9586 13.855,23.9586 C14.623,23.9586 15.394,24.1986 16.015,24.6916 C20.553,28.2776 24.972,32.0656 29.15,35.9526 C29.734,36.4976 30.067,37.2356 30.086,38.0316 C30.107,38.8466 29.803,39.6186 29.231,40.2066 L29.103,40.3386 C27.925,41.5486 26.026,41.6066 24.78,40.4756 C24.648,40.3556 24.51,40.2376 24.377,40.1176 C24.321,40.0586 24.277,39.9906 24.216,39.9346 C20.546,36.5306 16.673,33.2076 12.706,30.0576 C12.355,29.7776 11.964,29.5716 11.56,29.3996 C10.91,28.8836 10.507,28.1686 10.43,27.3746 C10.354,26.5976 10.604,25.8366 11.137,25.2286 M48.614,18.7736 C46.74,16.6246 42.958,16.9716 40.529,18.5236 C39.369,19.2656 38.164,20.6306 36.89,22.0766 C35.637,23.4976 33.921,25.4426 32.974,25.5466 C32.324,25.6826 31.791,25.3676 31.527,25.1386 C31.415,25.0236 18.071,12.5406 11.382,9.4726 C9.412,8.4326 6.043,8.7866 4.711,10.7176 C4.035,11.5106 3.745,12.8346 3.955,14.1736 C4.167,15.5236 4.844,16.6136 5.846,17.2326 C6.923,17.9256 9.35,19.5986 12.707,22.1296 C11.588,22.3586 10.538,22.9016 9.77,23.7786 L9.641,23.9256 C8.746,24.9456 8.325,26.2396 8.455,27.5676 C8.504,28.0676 8.656,28.5446 8.854,29.0036 C7.607,29.1436 6.408,29.6966 5.56,30.6606 L5.131,31.1476 C4.277,32.1226 3.875,33.3586 3.998,34.6286 C4.046,35.1236 4.198,35.5976 4.4,36.0496 C3.271,36.2066 2.194,36.7166 1.425,37.5916 L1.094,37.9666 C0.284,38.8906 -0.096,40.0626 0.021,41.2666 C0.139,42.4816 0.776,43.6176 1.766,44.3816 C5.366,47.1646 8.884,50.1076 12.222,53.1286 C13.07,53.8936 14.118,54.2786 15.172,54.3106 C18.047,57.5416 23.19,59.8156 28.397,60.1276 C28.801,60.1516 29.201,60.1636 29.595,60.1636 C33.451,60.1636 36.788,59.0126 39.083,56.8686 C43.838,52.4286 45.936,43.6276 40.831,35.3136 C40.826,33.3326 42.943,27.9386 47.614,25.0776 C48.736,24.3896 49.455,23.3596 49.638,22.1766 C49.823,20.9816 49.45,19.7426 48.614,18.7736" id="Fill-1"></path>
            <path d="M29.5804,0 C28.6734,0 27.9344,0.79 27.935399,1.792 C28.5174,9.858 29.1834,9.858 29.5804,9.858 C29.9774,9.858 30.6434,9.858 31.2264,1.762 C31.2264,0.79 30.4874,0 29.5804,0" id="Fill-3"></path>
            <path d="M40.0306,3.5366 C39.9306,3.0836 39.6646,2.7116 39.2786,2.4896 C38.8916,2.2656 38.4376,2.2216 37.9946,2.3606 C37.5656,2.4966 37.2026,2.7916 36.9576,3.2186 C33.4276,10.4956 34.0046,10.8286 34.3476,11.0266 L34.3486,11.0276 C34.4126,11.0636 34.4846,11.1056 34.5896,11.1056 C35.0456,11.1056 36.1166,10.3086 39.8216,4.8386 C40.0526,4.4376 40.1276,3.9756 40.0306,3.5366" id="Fill-5"></path>
            <path d="M21.1019,2.3609 C20.6629,2.2209 20.2059,2.2659 19.8199,2.4889 C19.4329,2.7119 19.1649,3.0839 19.0659,3.5369 C18.9689,3.9759 19.0429,4.4379 19.2899,4.8629 C22.9819,10.3109 24.0509,11.1059 24.5069,11.1059 C24.6119,11.1059 24.6839,11.0639 24.7479,11.0269 C25.0919,10.8279 25.6679,10.4959 22.1239,3.1929 C21.8939,2.7919 21.5309,2.4969 21.1019,2.3609" id="Fill-7"></path>
        </g>
    </g>
</svg>