<?xml version="1.0" encoding="UTF-8"?>
<svg width="69px" height="70px" viewBox="0 0 69 70" version="1.1" xmlns="http://www.w3.org/2000/svg" xmlns:xlink="http://www.w3.org/1999/xlink">
    <title>Enduring icon</title>
    <defs>
        <polygon id="path-1" points="0.388447619 0.101588466 46.4670269 0.101588466 46.4670269 34 0.388447619 34"></polygon>
    </defs>
    <g id="Symbols" stroke="none" stroke-width="1" fill="none" fill-rule="evenodd">
        <g id="Enduring-icon">
            <g id="Group-3" transform="translate(4.000000, 35.741500)">
                <mask id="mask-2" fill="white">
                    <use xlink:href="#path-1"></use>
                </mask>
                <g id="Clip-2"></g>
                <path d="M40.5156,30.8794 C40.5156,31.5054 40.0056,32.0154 39.3786,32.0154 L29.0946,32.0154 L29.0946,22.2614 C29.0946,19.6504 26.7686,17.5254 23.9096,17.5254 C21.0496,17.5254 18.7236,19.6504 18.7236,22.2614 L18.7236,32.0154 L8.4386,32.0154 C7.8116,32.0154 7.3016,31.5054 7.3016,30.8794 L7.3016,12.3974 L24.2536,2.2574 L40.5156,12.4374 L40.5156,30.8794 Z M27.1106,32.0154 L20.7076,32.0154 L20.7076,22.2614 C20.7076,20.7444 22.1436,19.5104 23.9096,19.5104 C25.6746,19.5104 27.1106,20.7444 27.1106,22.2614 L27.1106,32.0154 Z M46.0006,13.5304 L24.7916,0.2534 C24.4746,0.0554 24.0746,0.0504 23.7566,0.2424 L0.8716,13.9304 C0.4016,14.2124 0.2476,14.8214 0.5296,15.2914 C0.7146,15.6024 1.0436,15.7744 1.3816,15.7744 C1.5546,15.7744 1.7306,15.7294 1.8896,15.6334 L5.3176,13.5834 L5.3176,30.8794 C5.3176,32.6004 6.7176,34.0004 8.4386,34.0004 L39.3786,34.0004 C41.0996,34.0004 42.4996,32.6004 42.4996,30.8794 L42.4996,13.6794 L44.9486,15.2124 C45.4136,15.5034 46.0246,15.3614 46.3156,14.8984 C46.6066,14.4334 46.4656,13.8214 46.0006,13.5304 L46.0006,13.5304 Z" id="Fill-1" fill="#008542" mask="url(#mask-2)"></path>
            </g>
            <path d="M7.3984,31.4832 L7.3984,33.9672 L4.8354,36.4832 C4.5214,36.7912 4.5174,37.2932 4.8244,37.6062 C4.9794,37.7642 5.1844,37.8442 5.3904,37.8442 C5.5904,37.8442 5.7924,37.7682 5.9464,37.6162 L7.3984,36.1912 L7.3984,37.8842 C7.3984,38.4322 7.8424,38.8762 8.3904,38.8762 C8.9384,38.8762 9.3824,38.4322 9.3824,37.8842 L9.3824,36.1582 L10.8854,37.6192 C11.2004,37.9252 11.7024,37.9172 12.0084,37.6032 C12.3144,37.2892 12.3064,36.7862 11.9924,36.4812 L9.3824,33.9442 L9.3824,31.4832 L11.9104,31.4832 L14.4264,34.0472 C14.5824,34.2052 14.7874,34.2842 14.9934,34.2842 C15.1934,34.2842 15.3944,34.2092 15.5484,34.0572 C15.8624,33.7502 15.8664,33.2482 15.5594,32.9352 L14.1344,31.4832 L15.8274,31.4832 C16.3754,31.4832 16.8194,31.0392 16.8194,30.4912 C16.8194,29.9432 16.3754,29.4992 15.8274,29.4992 L14.1014,29.4992 L15.5624,27.9962 C15.8684,27.6812 15.8604,27.1792 15.5464,26.8742 C15.2334,26.5672 14.7304,26.5762 14.4234,26.8892 L11.8864,29.4992 L9.3824,29.4992 L9.3824,27.0312 L11.9924,24.4952 C12.3064,24.1892 12.3144,23.6872 12.0084,23.3722 C11.7034,23.0582 11.2014,23.0512 10.8854,23.3562 L9.3824,24.8172 L9.3824,23.0492 C9.3824,22.5012 8.9384,22.0572 8.3904,22.0572 C7.8424,22.0572 7.3984,22.5012 7.3984,23.0492 L7.3984,24.7842 L5.9464,23.3592 C5.6334,23.0522 5.1314,23.0552 4.8244,23.3692 C4.5174,23.6822 4.5214,24.1852 4.8354,24.4922 L7.3984,27.0082 L7.3984,29.4992 L4.9754,29.4992 L2.4384,26.8892 C2.1324,26.5762 1.6304,26.5672 1.3154,26.8742 C1.0024,27.1792 0.9944,27.6812 1.2994,27.9962 L2.7604,29.4992 L0.9924,29.4992 C0.4444,29.4992 0.0004,29.9432 0.0004,30.4912 C0.0004,31.0392 0.4444,31.4832 0.9924,31.4832 L2.7274,31.4832 L1.3024,32.9352 C0.9964,33.2482 1.0004,33.7502 1.3134,34.0572 C1.4674,34.2092 1.6684,34.2842 1.8694,34.2842 C2.0744,34.2842 2.2804,34.2052 2.4354,34.0472 L4.9524,31.4832 L7.3984,31.4832 Z" id="Fill-4" fill="#008542"></path>
            <path d="M36.6543,9.0506 C37.2023,9.0506 37.6463,8.6066 37.6463,8.0586 L37.6463,0.9916 C37.6463,0.4446 37.2023,-0.0004 36.6543,-0.0004 C36.1063,-0.0004 35.6623,0.4446 35.6623,0.9916 L35.6623,8.0586 C35.6623,8.6066 36.1063,9.0506 36.6543,9.0506" id="Fill-6" fill="#008542"></path>
            <path d="M29.2256,11.5472 C29.4186,11.7412 29.6726,11.8382 29.9266,11.8382 C30.1806,11.8382 30.4346,11.7402 30.6276,11.5472 C31.0156,11.1592 31.0156,10.5312 30.6276,10.1442 L25.6306,5.1472 C25.2446,4.7592 24.6156,4.7602 24.2286,5.1472 C23.8406,5.5352 23.8406,6.1632 24.2286,6.5502 L29.2256,11.5472 Z" id="Fill-8" fill="#008542"></path>
            <path d="M28.1318,17.5735 C28.1318,17.0255 27.6878,16.5815 27.1398,16.5815 L20.0728,16.5815 C19.5258,16.5815 19.0808,17.0255 19.0808,17.5735 C19.0808,18.1215 19.5258,18.5655 20.0728,18.5655 L27.1398,18.5655 C27.6878,18.5655 28.1318,18.1215 28.1318,17.5735" id="Fill-10" fill="#008542"></path>
            <path d="M29.2256,23.6004 L24.2286,28.5974 C23.8406,28.9844 23.8406,29.6124 24.2286,30.0004 C24.4216,30.1934 24.6756,30.2904 24.9296,30.2904 C25.1836,30.2904 25.4376,30.1944 25.6306,30.0004 L30.6276,25.0034 C31.0156,24.6164 31.0156,23.9884 30.6276,23.6004 C30.2416,23.2134 29.6126,23.2124 29.2256,23.6004" id="Fill-12" fill="#008542"></path>
            <path d="M43.3828,11.8377 C43.6368,11.8377 43.8908,11.7407 44.0838,11.5467 L49.0808,6.5507 C49.4688,6.1627 49.4688,5.5347 49.0808,5.1477 C48.6948,4.7607 48.0658,4.7597 47.6788,5.1477 L42.6818,10.1437 C42.2938,10.5317 42.2938,11.1597 42.6818,11.5467 C42.8748,11.7407 43.1288,11.8377 43.3828,11.8377" id="Fill-14" fill="#008542"></path>
            <path d="M38.6992,20.3958 C36.7692,20.2998 35.0152,20.9848 33.6982,22.1498 C32.1982,21.1778 31.2012,19.4918 31.2012,17.5738 C31.2012,14.5658 33.6472,12.1198 36.6542,12.1198 C38.6812,12.1198 40.4502,13.2338 41.3892,14.8788 C40.0542,16.4108 39.1032,18.2958 38.6992,20.3958 M61.3382,18.3488 C59.5722,13.8198 55.2262,10.8228 50.3172,10.8228 C47.4952,10.8228 44.8942,11.8098 42.8512,13.4688 C41.5172,11.4618 39.2392,10.1358 36.6542,10.1358 C32.5532,10.1358 29.2172,13.4728 29.2172,17.5738 C29.2172,20.0958 30.4812,22.3248 32.4062,23.6698 C31.7162,24.7638 31.3102,26.0558 31.3102,27.4418 C31.3102,31.3318 34.4752,34.4968 38.3652,34.4968 C38.9132,34.4968 39.3572,34.0518 39.3572,33.5038 C39.3572,32.9568 38.9132,32.5118 38.3652,32.5118 C35.5692,32.5118 33.2952,30.2378 33.2952,27.4418 C33.2952,26.3818 33.6322,25.3998 34.1952,24.5848 C34.6542,23.9188 35.2632,23.3658 35.9772,22.9808 C36.8952,22.4848 37.9782,22.2708 39.1102,22.4368 C39.1892,22.4478 39.2672,22.4538 39.3462,22.4688 C39.6212,22.5208 39.9022,22.4588 40.1262,22.2928 C40.3492,22.1278 40.4942,21.8768 40.5232,21.6008 C40.5312,21.5238 40.5492,21.4508 40.5582,21.3748 C40.7572,19.8498 41.2922,18.4448 42.0912,17.2328 C42.5582,16.5228 43.1112,15.8778 43.7392,15.3148 C45.4892,13.7498 47.7992,12.8078 50.3172,12.8078 C54.5952,12.8078 58.3582,15.5418 59.6822,19.6098 C59.8142,20.0148 60.1892,20.2908 60.6152,20.2948 C63.9462,20.3318 66.6572,23.0708 66.6572,26.4018 C66.6572,29.0918 64.8572,31.5018 62.2802,32.2628 C61.7552,32.4178 61.4552,32.9698 61.6102,33.4958 C61.7652,34.0208 62.3172,34.3218 62.8432,34.1668 C66.2572,33.1578 68.6412,29.9648 68.6412,26.4018 C68.6412,22.2258 65.4252,18.7508 61.3382,18.3488" id="Fill-16" fill="#008542"></path>
            <path d="M48.8096,43.9466 C48.5846,43.9466 48.3596,43.8706 48.1726,43.7146 C47.7526,43.3626 47.6986,42.7366 48.0506,42.3166 L59.1056,29.1336 C59.4556,28.7146 60.0806,28.6586 60.5026,29.0116 C60.9226,29.3636 60.9776,29.9896 60.6246,30.4096 L49.5706,43.5926 C49.3746,43.8256 49.0926,43.9466 48.8096,43.9466" id="Fill-18" fill="#008542"></path>
            <path d="M44.3584,41.013 C44.1304,41.013 43.9034,40.935 43.7164,40.777 C43.2984,40.423 43.2474,39.797 43.6014,39.379 L52.3004,29.13 C52.6564,28.711 53.2824,28.662 53.6994,29.015 C54.1174,29.37 54.1694,29.996 53.8144,30.414 L45.1154,40.663 C44.9194,40.894 44.6384,41.013 44.3584,41.013" id="Fill-20" fill="#008542"></path>
            <path d="M40.3232,38.3519 C40.0992,38.3519 39.8742,38.2759 39.6882,38.1219 C39.2672,37.7699 39.2112,37.1449 39.5622,36.7239 L45.8922,29.1359 C46.2442,28.7169 46.8692,28.6589 47.2902,29.0099 C47.7112,29.3609 47.7672,29.9869 47.4162,30.4079 L41.0862,37.9959 C40.8892,38.2299 40.6072,38.3519 40.3232,38.3519" id="Fill-22" fill="#008542"></path>
        </g>
    </g>
</svg>