<svg width="29" height="28" viewBox="0 0 29 28" fill="none" xmlns="http://www.w3.org/2000/svg" alt="Instagram"><rect x="1.95361" y="1" width="25.6498" height="25.6498" rx="1" fill="#F5F7FA" stroke="#343B4E" stroke-width="2"></rect><path d="M18.1363 6.9999H11.8633C9.73303 6.9999 7.9999 8.73311 7.9999 10.8634V17.1364C7.9999 19.2668 9.73303 20.9999 11.8633 20.9999H18.1363C20.2668 20.9999 21.9999 19.2667 21.9999 17.1364V10.8634C22 8.73311 20.2668 6.9999 18.1363 6.9999ZM20.7578 17.1364C20.7578 18.5819 19.5819 19.7578 18.1364 19.7578H11.8633C10.4179 19.7578 9.24205 18.5819 9.24205 17.1364V10.8634C9.24205 9.41803 10.4179 8.24205 11.8633 8.24205H18.1363C19.5818 8.24205 20.7578 9.41803 20.7578 10.8634L20.7578 17.1364Z" fill="#343B4E"></path><path d="M14.9997 10.3927C13.0105 10.3927 11.3922 12.0109 11.3922 14.0001C11.3922 15.9892 13.0105 17.6074 14.9997 17.6074C16.9889 17.6074 18.6071 15.9892 18.6071 14.0001C18.6071 12.0109 16.9889 10.3927 14.9997 10.3927ZM14.9997 16.3652C13.6955 16.3652 12.6344 15.3042 12.6344 14C12.6344 12.6958 13.6954 11.6347 14.9997 11.6347C16.3039 11.6347 17.365 12.6958 17.365 14C17.365 15.3042 16.3039 16.3652 14.9997 16.3652Z" fill="#343B4E"></path><path d="M18.7588 9.33929C18.5195 9.33929 18.2844 9.43618 18.1154 9.60594C17.9456 9.77487 17.8479 10.01 17.8479 10.2502C17.8479 10.4896 17.9456 10.7247 18.1154 10.8945C18.2843 11.0634 18.5195 11.1611 18.7588 11.1611C18.999 11.1611 19.2333 11.0634 19.4031 10.8945C19.5729 10.7247 19.6697 10.4895 19.6697 10.2502C19.6697 10.01 19.5729 9.77487 19.4031 9.60594C19.2342 9.43618 18.999 9.33929 18.7588 9.33929Z" fill="#343B4E"></path><path fill-rule="evenodd" clip-rule="evenodd" d="M7.8999 10.8634C7.8999 8.67789 9.6778 6.8999 11.8633 6.8999H18.1363C20.322 6.8999 22.1 8.67788 22.0999 10.8634V17.1364C22.0999 19.3219 20.322 21.0999 18.1363 21.0999H11.8633C9.6778 21.0999 7.8999 19.322 7.8999 17.1364V10.8634ZM11.8633 7.0999C9.78826 7.0999 8.0999 8.78834 8.0999 10.8634V17.1364C8.0999 19.2115 9.78826 20.8999 11.8633 20.8999H18.1363C20.2115 20.8999 21.8999 19.2115 21.8999 17.1364V10.8634C21.9 8.78834 20.2115 7.0999 18.1363 7.0999H11.8633ZM11.8633 8.34205C10.4732 8.34205 9.34205 9.47326 9.34205 10.8634V17.1364C9.34205 18.5266 10.4732 19.6578 11.8633 19.6578H18.1364C19.5266 19.6578 20.6578 18.5266 20.6578 17.1364L20.6578 10.8634C20.6578 9.47326 19.5265 8.34205 18.1363 8.34205H11.8633ZM9.14205 10.8634C9.14205 9.36281 10.3627 8.14205 11.8633 8.14205H18.1363C19.637 8.14205 20.8578 9.3628 20.8578 10.8634L20.8578 17.1364C20.8578 18.6371 19.6371 19.8578 18.1364 19.8578H11.8633C10.3627 19.8578 9.14205 18.6371 9.14205 17.1364V10.8634ZM18.0447 9.53521C18.2326 9.34656 18.4932 9.23929 18.7588 9.23929C19.0253 9.23929 19.2861 9.34658 19.474 9.5354C19.6626 9.72327 19.7697 9.98389 19.7697 10.2502C19.7697 10.5159 19.6624 10.7766 19.4738 10.9652C19.2855 11.1526 19.0257 11.2611 18.7588 11.2611C18.4929 11.2611 18.2323 11.1528 18.0447 10.9652C17.8563 10.7767 17.7479 10.5163 17.7479 10.2502C17.7479 9.98359 17.856 9.72295 18.0447 9.53521ZM18.7588 9.43929C18.5459 9.43929 18.3364 9.52573 18.1863 9.67649C18.0353 9.8266 17.9479 10.0366 17.9479 10.2502C17.9479 10.4629 18.035 10.6726 18.1861 10.8237C18.3363 10.974 18.5461 11.0611 18.7588 11.0611C18.9722 11.0611 19.1812 10.9741 19.3324 10.8237C19.4833 10.6728 19.5697 10.4631 19.5697 10.2502C19.5697 10.0364 19.4833 9.82679 19.3326 9.67682C19.1826 9.52612 18.9727 9.43929 18.7588 9.43929ZM11.2922 14.0001C11.2922 11.9557 12.9553 10.2927 14.9997 10.2927C17.0441 10.2927 18.7071 11.9557 18.7071 14.0001C18.7071 16.0444 17.0441 17.7074 14.9997 17.7074C12.9553 17.7074 11.2922 16.0444 11.2922 14.0001ZM14.9997 10.4927C13.0657 10.4927 11.4922 12.0662 11.4922 14.0001C11.4922 15.934 13.0657 17.5074 14.9997 17.5074C16.9336 17.5074 18.5071 15.934 18.5071 14.0001C18.5071 12.0662 16.9336 10.4927 14.9997 10.4927ZM14.9997 11.7347C13.7507 11.7347 12.7344 12.751 12.7344 14C12.7344 15.249 13.7507 16.2652 14.9997 16.2652C16.2486 16.2652 17.265 15.249 17.265 14C17.265 12.751 16.2487 11.7347 14.9997 11.7347ZM12.5344 14C12.5344 12.6405 13.6402 11.5347 14.9997 11.5347C16.3592 11.5347 17.465 12.6405 17.465 14C17.465 15.3594 16.3591 16.4652 14.9997 16.4652C13.6403 16.4652 12.5344 15.3594 12.5344 14Z" fill="#343B4E"></path></svg>