<?xml version="1.0" encoding="UTF-8"?><svg id="Layer_1" xmlns="http://www.w3.org/2000/svg" viewBox="0 0 110 100"><defs><style>.cls-1{fill:#008b54;stroke-width:0px;}</style></defs><path class="cls-1" d="m53.86,55.65c0,.43-.16.83-.47,1.13s-.7.47-1.12.47-.83-.16-1.13-.47l-15.17-15.18v8.36c0,.88-.72,1.6-1.59,1.6s-1.6-.72-1.6-1.6v-13.67h13.67c.88,0,1.59.72,1.59,1.6s-.72,1.59-1.59,1.59h-8.08l15.04,15.05c.3.3.47.7.47,1.12h0Z"/><path class="cls-1" d="m76.85,66.69v13.67h-13.67c-.88,0-1.59-.72-1.59-1.59s.72-1.59,1.59-1.59h8.09l-15.06-15.05c-.3-.31-.45-.71-.45-1.12s.16-.83.47-1.13c.3-.3.7-.47,1.13-.47s.83.17,1.13.47l15.17,15.17v-8.36c0-.88.72-1.59,1.59-1.59s1.59.72,1.59,1.59h0Z"/><path class="cls-1" d="m53.27,62l-15.17,15.18h8.35c.88,0,1.6.71,1.6,1.59s-.72,1.59-1.6,1.59h-13.67v-13.67c0-.88.72-1.6,1.6-1.6s1.59.72,1.59,1.6v8.09l15.05-15.05c.3-.3.71-.46,1.13-.46s.83.16,1.13.47c.62.62.62,1.63,0,2.26h0Z"/><path class="cls-1" d="m76.85,36.29v13.67c0,.88-.72,1.6-1.59,1.6s-1.59-.72-1.59-1.6v-8.08l-15.04,15.04c-.3.3-.7.47-1.13.47s-.82-.16-1.12-.47c-.3-.3-.47-.71-.47-1.13s.17-.84.47-1.13l15.18-15.18h-8.37c-.88,0-1.59-.71-1.59-1.59s.71-1.6,1.59-1.6h13.67Z"/><path class="cls-1" d="m107.17,40L55.72,11.75c-.56-.31-1.24-.31-1.8,0L2.47,40c-.91.5-1.23,1.64-.74,2.55.5.91,1.64,1.24,2.55.74l4.74-2.6v50.26h91.62v-50.26l4.74,2.6c.28.16.59.23.9.23.66,0,1.3-.35,1.64-.97.5-.91.16-2.05-.74-2.55h0Zm-10.3-.96v48.16H12.76v-48.16c0-.13-.01-.26-.04-.38L54.81,15.54l42.1,23.11c-.03.13-.04.25-.04.38h0Z"/></svg>