<svg width="28" height="28" viewBox="0 0 28 28" fill="none" xmlns="http://www.w3.org/2000/svg" alt="LinkedIn"><rect x="1.47705" y="1" width="25.6498" height="25.6498" rx="1" stroke="#343B4E" stroke-width="2"></rect><path d="M10.5844 10.9749H7.7793V19.3985H10.5844V10.9749Z" fill="#343B4E"></path><path d="M19.7907 11.7525C19.2015 11.1093 18.4222 10.7876 17.4532 10.7876C17.0962 10.7876 16.7717 10.8315 16.4798 10.9194C16.188 11.0072 15.9415 11.1305 15.7403 11.2892C15.5392 11.4478 15.379 11.5952 15.2601 11.7311C15.147 11.8602 15.0364 12.0106 14.9285 12.1808V10.983H12.1318L12.1404 11.391C12.1462 11.6631 12.149 12.5018 12.149 13.9071C12.149 15.3125 12.1433 17.1457 12.132 19.4068H14.9285V14.706C14.9285 14.4171 14.9595 14.1876 15.022 14.0175C15.1411 13.7283 15.3208 13.4862 15.5618 13.2908C15.8028 13.0951 16.1016 12.9974 16.4587 12.9974C16.9459 12.9974 17.3045 13.166 17.534 13.5031C17.7635 13.8403 17.8782 14.3064 17.8782 14.9015V19.4065H20.6748V14.5787C20.6746 13.3375 20.3801 12.3955 19.7907 11.7525Z" fill="#343B4E"></path><path d="M9.19919 6.92969C8.7289 6.92969 8.34783 7.06721 8.05591 7.34198C7.76402 7.61681 7.61816 7.96379 7.61816 8.38323C7.61816 8.7968 7.75982 9.14258 8.04317 9.42018C8.32643 9.69781 8.70049 9.8367 9.16516 9.8367H9.18216C9.65822 9.8367 10.0422 9.69793 10.334 9.42018C10.6258 9.14258 10.7689 8.79692 10.7632 8.38323C10.7576 7.96382 10.613 7.61681 10.3297 7.34198C10.0465 7.06709 9.66951 6.92969 9.19919 6.92969Z" fill="#343B4E"></path></svg>