<svg width="29" height="28" viewBox="0 0 29 28" fill="none" xmlns="http://www.w3.org/2000/svg" alt="Pinterest"><rect x="1.47705" y="1" width="25.6498" height="25.6498" rx="1" stroke="#343B4E" stroke-width="2"></rect><path d="M19.4354 11.2784C19.0707 8.67806 16.441 7.35403 13.6352 7.66405C11.4169 7.90912 9.20529 9.67644 9.11349 12.2036C9.05756 13.7464 9.50156 14.9035 10.9913 15.2292C11.6364 14.1042 10.7835 13.8582 10.6499 13.0433C10.1033 9.71261 14.549 7.43789 16.8774 9.76525C18.4898 11.3771 17.4274 16.3328 14.8302 15.8172C12.3424 15.3254 16.0487 11.3804 14.0633 10.6066C12.4492 9.97661 11.5921 12.5309 12.3574 13.8007C11.9084 15.9841 10.942 18.0401 11.3334 20.7778C12.602 19.8699 13.0301 18.1338 13.3806 16.3221C14.0182 16.7046 14.3596 17.1001 15.1724 17.1618C18.1702 17.3912 19.8468 14.2127 19.4354 11.2784Z" fill="#343B4E"></path></svg>