<svg width="28" height="28" viewBox="0 0 28 28" fill="none" xmlns="http://www.w3.org/2000/svg" alt="YouTube"><rect x="1.47705" y="1" width="25.6498" height="25.6498" rx="1" stroke="#343B4E" stroke-width="2"></rect><path d="M20.4543 9.9195C19.949 9.31876 19.0159 9.07373 17.2341 9.07373H10.7658C8.94316 9.07373 7.9943 9.33459 7.49085 9.97416C7 10.5977 7 11.5165 7 12.7882V15.2119C7 17.6755 7.58239 18.9264 10.7658 18.9264H17.2341C18.7793 18.9264 19.6356 18.7101 20.1895 18.18C20.7576 17.6363 21 16.7487 21 15.2119V12.7882C21 11.4471 20.962 10.5229 20.4543 9.9195ZM15.9881 14.3347L13.0508 15.8697C12.9852 15.9041 12.9134 15.9211 12.8417 15.9211C12.7605 15.9211 12.6794 15.8993 12.6077 15.8558C12.4726 15.7739 12.3901 15.6275 12.3901 15.4695V12.4092C12.3901 12.2515 12.4723 12.1051 12.6072 12.0232C12.7421 11.9413 12.9099 11.9357 13.0498 12.0084L15.987 13.5336C16.1364 13.6112 16.2303 13.7654 16.2305 13.9338C16.2307 14.1022 16.1373 14.2567 15.9881 14.3347Z" fill="#343B4E"></path></svg>